<?xml version="1.0" encoding="UTF-8"?>
<svg id="a" data-name="Layer 1" xmlns="http://www.w3.org/2000/svg" viewBox="0 0 542.31 180.91">
  <defs>
    <style>
      .b {
        fill: #f2f8f2;
      }

      .b, .c, .d, .e, .f {
        stroke-width: 0px;
      }

      .c {
        fill: #538d50;
      }

      .d {
        fill: #3b3b3d;
      }

      .e {
        fill: #b59e3a;
      }

      .f {
        fill: #f1f7f0;
      }
    </style>
  </defs>
  <path class="d" d="m423.21,129.57c-2.17.03-4.33-.12-6.5.09-.83-1.08-1.71-2.11-2.93-2.78-2.94-1.62-5.9-1.37-8.89-.15-1.58.65-2.78,1.81-4.09,2.84-11.11,0-22.21,0-33.32,0-1.91,0-1.71.17-1.71-1.66,0-27.47,0-54.94,0-82.41,0-.21.02-.42,0-.63-.08-.73.18-1.1.96-1.02.31.03.63,0,.95,0,27.16,0,54.32,0,81.47,0q1.95,0,1.95,1.9c0,26.58,0,53.15,0,79.73,0,.53-.03,1.05-.05,1.58-1.19-.21-2.25-.87-3.47-.95-1.82-.12-3.52.32-5.19,1-1.44.58-2.55,1.61-3.77,2.51-1.74,0-3.49-.02-5.23-.03-.38-.42-.74-.86-1.15-1.25-2.07-2-4.62-2.34-7-1.01-.96.54-1.45,1.44-2.04,2.27Zm-29.1-44.06c0,8.05,0,16.1,0,24.15,0,.42,0,.84.01,1.26.01.36.17.58.57.57.37,0,.74,0,1.1,0,8.79,0,17.57,0,26.36,0,.32,0,.63-.01.95,0,.51.02.79-.16.78-.72-.01-1.68-.01-3.37,0-5.05,0-.55-.27-.74-.78-.73-.37.01-.74,0-1.1,0-6.21,0-12.42,0-18.63,0-1.87,0-1.66.19-1.66-1.71,0-13.94,0-27.88,0-41.83,0-.42-.02-.84,0-1.26.02-.54-.24-.75-.76-.74-2.05,0-4.1,0-6.16,0-.45,0-.68.18-.68.64,0,.42,0,.84,0,1.26,0,8.05,0,16.1,0,24.15Z"/>
  <path class="c" d="m456.89,87.24c0-13.73,0-27.47,0-41.2,0-2.03-.06-1.75,1.81-1.75,27.26,0,54.52,0,81.78,0,.26,0,.53.02.79,0,.72-.07,1.11.17,1.03.97-.03.31,0,.63,0,.95,0,27.31,0,54.62,0,81.93,0,1.97.36,1.94-1.96,1.94-27.15,0-54.31,0-81.46,0-2.12,0-1.97.22-1.97-1.93,0-13.63,0-27.26,0-40.89Zm27.58-1.4c0,8.05,0,16.1,0,24.15,0,.37.02.74,0,1.1-.04.61.25.86.84.82.31-.02.63,0,.95,0,9.37,0,18.73,0,28.1,0,.21,0,.42-.02.63,0,.79.08,1.14-.2,1.1-1.06-.06-1.31,0-2.63-.02-3.95-.02-1.23-.03-1.24-1.21-1.27-.37-.01-.74,0-1.11,0-6.79,0-13.58,0-20.37,0-1.3,0-1.32-.02-1.33-1.29,0-5,0-10,0-15,0-1.36.02-1.37,1.41-1.37,4.68,0,9.37,0,14.05,0,1.68,0,3.37-.03,5.05.01.83.02,1.1-.3,1.07-1.1-.05-1.31,0-2.63-.02-3.95-.02-1.07-.04-1.08-1.19-1.1-1.32-.02-2.63,0-3.95,0-4.89,0-9.79,0-14.68,0-1.89,0-1.74.2-1.75-1.82,0-.53,0-1.05,0-1.58,0-3.53,0-7.05,0-10.58q0-1.67,1.74-1.68c.26,0,.53,0,.79,0,6.42,0,12.84,0,19.26,0,.37,0,.74-.02,1.1,0,.59.02.86-.23.85-.84-.02-1.32,0-2.63,0-3.95,0-1.39-.02-1.41-1.37-1.41-9.52,0-19.05,0-28.57,0-1.37,0-1.38.02-1.39,1.38,0,.32,0,.63,0,.95,0,7.84,0,15.68,0,23.52Z"/>
  <path class="c" d="m232.79,130.45c-.54-.62-1.27-.38-1.92-.38-7.58-.02-15.15-.01-22.73-.01-7.68,0-15.36,0-23.04,0-.37,0-.74-.02-1.1,0-.76.05-1.22-.19-1.12-1.06.04-.31,0-.63,0-.95,0-27.25,0-54.5,0-81.74,0-2.31-.28-2.01,2-2.03,2.79-.03,5.58-.04,8.36-.05.28.31.54.64.84.92,2.76,2.52,6.51,2.55,9.15.08.34-.32.68-.63,1.02-.94,4.56,0,9.12.01,13.69-.01.54,0,1.16.27,1.61-.29,2.37.85,4.8,1.3,7.33,1.23,1.79-.05,3.47-.55,5.19-.94,11.42,0,22.85,0,34.27.02,2.06,0,1.87-.27,1.87,1.84,0,27.37,0,54.75,0,82.12,0,1.92.23,1.81-1.75,1.82-5.58,0-11.16,0-16.74,0-.63,0-1.27-.05-1.88.12-1.73-.78-3.59-.46-5.39-.56-1.46-.08-2.92.03-4.39.14-1.78.13-3.49.7-5.27.69Zm-1.27-40.21c1.06-.59,2.03-1.12,2.98-1.67,8.91-5.11,8.9-15.18,5.66-21.16-2.6-4.79-6.96-6.96-12.17-7.29-6.09-.38-12.2-.08-18.31-.14-.77,0-1.04.31-.97,1.03.02.26,0,.53,0,.79,0,16.1,0,32.2,0,48.3,0,.37.01.74,0,1.1,0,.43.15.71.63.71,1.95,0,3.89,0,5.84,0,.47,0,.64-.27.63-.7,0-.37,0-.74,0-1.1,0-5.52,0-11.05,0-16.57,0-.37.02-.74,0-1.1-.03-.62.27-.83.86-.83,1.21.02,2.42-.02,3.63,0,1.36.04,2.95-.49,4.02.23.99.67,1.47,2.12,2.15,3.25,3.16,5.22,6.33,10.43,9.44,15.68.53.9,1.11,1.23,2.13,1.18,1.84-.08,3.68-.01,5.52-.03.4,0,.83.13,1.37-.3-4.46-7.1-8.92-14.2-13.41-21.37Z"/>
  <path class="e" d="m74.27,44.22c3.42,0,6.84,0,10.26.01,1.23,0,1.24.02,1.27,1.2,0,.32,0,.63,0,.95,0,27,0,53.99,0,80.99,0,2.58.09,2.17-2.22,2.17-27.21,0-54.42,0-81.63,0-2.17,0-1.94.21-1.94-1.94,0-27.16,0-54.31,0-81.47,0-2.14-.24-1.91,1.97-1.91,14,0,28,0,42,0,.32.23.4.6.57.92,1.42,2.54,3.11,4.86,5.27,6.83,3.21,2.93,6.97,3.88,11.23,3.17,2.63-.44,4.82-1.66,6.78-3.42,2.47-2.22,4.48-4.84,6.44-7.5Zm-15.62,58.26c-.41-.37-.42-.85-.51-1.3-.48-2.21-.92-4.42-1.45-6.62-1.44-5.93-3.46-11.69-5.21-17.53-1.58-5.29-3.22-10.56-4.85-15.83-.37-1.19-.39-1.2-1.63-1.21-1.32-.01-2.63,0-3.95,0-1.62,0-1.62,0-2.06,1.49-1.86,6.3-3.71,12.6-5.59,18.9-2.11,7.05-4.32,14.07-5.72,21.31-.04.23-.01.62-.43.68-.39-3-1.06-5.92-1.87-8.8-1.86-6.68-3.8-13.34-5.71-20.01-1.17-4.09-2.36-8.18-3.54-12.27-.37-1.27-.37-1.28-1.71-1.28-1.42,0-2.84,0-4.26,0-2.27,0-2.23-.21-1.52,2.13,3.03,10.12,6.06,20.24,9.1,30.35,1.83,6.09,3.69,12.17,5.49,18.27.25.84.56,1.22,1.5,1.18,1.84-.08,3.68-.05,5.52,0,.71.02,1.06-.24,1.23-.91.28-1.12.61-2.23.91-3.35,3.27-12.23,7.01-24.34,9.96-36.66.06-.25.09-.53.4-.61.06.08.14.14.16.23,1.56,6.11,3.37,12.15,5.1,18.21,2.1,7.33,4.21,14.64,6.28,21.98.22.8.55,1.13,1.4,1.1,1.84-.05,3.68-.05,5.52,0,.81.02,1.32-.19,1.4-1.06.01-.15.11-.3.15-.45,4.64-15.78,9.28-31.56,13.9-47.35.28-.94.74-1.86.66-3.08-2,0-3.99,0-5.98,0-1.48,0-1.47.01-1.88,1.48-1.5,5.42-3.02,10.83-4.51,16.25-2.25,8.2-4.74,16.35-6.33,24.76Z"/>
  <path class="d" d="m335.48,130.11c-.68-.02-1.36-.07-2.05-.07-19.16,0-38.32,0-57.48,0-2.16,0-1.93.24-1.93-1.95,0-27.26,0-54.53,0-81.79,0-.11,0-.21,0-.32,0-1.98-.06-1.7,1.68-1.7,27.32,0,54.64,0,81.96,0,1.96,0,1.74-.17,1.74,1.81,0,27.37,0,54.74,0,82.11,0,.21,0,.42,0,.63-.02,1.19-.03,1.21-1.23,1.21-4.05.01-8.11,0-12.16,0-.58,0-1.15.06-1.73.1,0-.47.01-.94.03-1.42.05-1.7-.77-2.88-2.21-3.7-1.77-1.01-5.25-.64-6.17,1.86-.4,1.09-.48,2.12-.45,3.22Zm-39.59-44.16c0,8.1,0,16.2,0,24.3,0,1.87-.2,1.65,1.71,1.65,4.05.01,8.1-.01,12.15,0,3.65.02,7.25-.36,10.77-1.32,8.75-2.38,14.44-7.94,16.82-16.69,1.5-5.52,1.55-11.15.2-16.7-1.35-5.58-4.38-10.09-9.3-13.2-4.11-2.6-8.65-3.84-13.45-3.95-5.89-.14-11.78-.07-17.68-.09-.21,0-.42,0-.63,0-.38,0-.58.18-.59.57,0,.42,0,.84,0,1.26,0,8.05,0,16.1,0,24.15Z"/>
  <path class="e" d="m177.16,47.45c0,26.63,0,53.27-.01,79.9,0,2.5.33,2.2-2.16,2.2-27.06,0-54.12,0-81.17,0-2.14,0-2.09.41-2.09-2.14,0-24.37,0-48.74,0-73.11,0-.63.04-1.26.06-1.89,5,1.77,9.27-2.49,9-6.97-.03-.52,0-1.04.01-1.56,1.21,0,2.42-.02,3.63-.02.07.41.12.83.21,1.24.76,3.42,3.06,5.35,6.71,5.43,3.14.06,5.85-2.33,6.47-5.56.08-.41.19-.81.28-1.22,8.26.01,16.53.03,24.79.03,1.89,0,3.79-.04,5.68-.06.05.25.12.5.15.75.3,2.78,2.46,5.23,5.17,5.84,2.88.65,5.55-.5,7.11-3.06.64-1.05.97-2.19,1.13-3.4,2.48.01,4.96.02,7.43.03.76.92,1.47,1.88,2.48,2.56,1.57,1.05,3.31,1.14,5.11,1.01Zm-18.43,38.51c-.04-.73-.1-1.47-.12-2.2-.08-3.88-.84-7.63-2.4-11.18-2.3-5.23-6-9.09-11.31-11.32-4.47-1.87-9.11-2.43-13.91-1.84-8.6,1.05-15.09,5.23-18.59,13.26-3.89,8.92-3.77,18.04,0,26.98,2.46,5.83,6.9,9.72,12.95,11.67,4.97,1.61,10.01,1.79,15.09.61,7.31-1.69,12.49-5.99,15.64-12.79,1.94-4.19,2.58-8.63,2.64-13.19Z"/>
  <path class="b" d="m177.16,47.45c-1.8.13-3.54.05-5.11-1.01-1.01-.68-1.72-1.64-2.48-2.56-1.19-3.16-1.57-6.5-2.06-9.81-.37-2.54-.68-5.09-1.06-7.63-.19-1.31-.58-2.57-1.48-3.58-1.05-1.18-2.15-1.05-2.86.34-.53,1.05-.72,2.19-.7,3.36.12,5.77.42,11.53.72,17.3-.16,1.2-.49,2.35-1.13,3.4-1.56,2.56-4.23,3.71-7.11,3.06-2.71-.61-4.87-3.06-5.17-5.84-.03-.25-.1-.5-.15-.75-.53-7.87-.9-15.75-1.08-23.63-.05-2.32.07-4.62.36-6.92.17-1.38.57-2.65,1.35-3.82,1.44-2.14,5.35-3.32,7.88-.85,1.73,1.69,2.62,3.77,3.33,5.98.13.4.2.82.31,1.22.31,1.14.43,1.21,1.45.53,2.37-1.58,4.9-1.89,7.5-.81,2.32.96,4.18,2.61,5.81,4.51.71.83,1.38,1.7,2.14,2.65.75-1.01,1.06-2.12,1.5-3.15,1.31-3.08,3.26-5.59,6.06-7.49,2.62-1.78,5.4-2.49,8.52-1.69,1.12.29,2.23.59,3.31,1.02,5.28,2.07,7.9,6.03,8.64,11.58.78,5.84.41,11.64-.04,17.46-.11,1.44-.75,2.72-1.35,4-.34.31-.68.63-1.02.94-2.64,2.47-6.39,2.44-9.15-.08-.31-.28-.56-.61-.84-.92-1.35-2.25-1.26-4.71-1.1-7.19.15-2.25.31-4.51.43-6.76.16-2.92-.43-5.74-1.29-8.52-.22-.7-.54-1.37-.98-1.96-.92-1.23-1.91-1.31-3.05-.25-.62.58-1.08,1.29-1.46,2.04-1.76,3.46-2.84,7.09-2.9,11.01-.04,2.73.09,5.47-.25,8.19-.36,2.85-2.38,5.41-5.08,6.47-.15.06-.29.13-.43.2Z"/>
  <path class="b" d="m74.27,44.22c-1.96,2.66-3.97,5.27-6.44,7.5-1.96,1.76-4.16,2.98-6.78,3.42-4.25.72-8.02-.24-11.23-3.17-2.15-1.97-3.85-4.29-5.27-6.83-.18-.32-.25-.69-.57-.92-.33-.94-.66-1.88-.98-2.82-1.13-3.28-1.37-6.68-1.25-10.11.27-7.46,2.22-14.39,6.56-20.56.63-.9,1.3-1.79,2.01-2.63,1.35-1.6,2.97-2.81,5.04-3.33.61-.15,1.22-.32,1.8-.58,2.84-1.24,5.74-.9,8.66-.43,1.7.28,3.19,1.01,4.56,2.02,3.45,2.56,5.71,5.96,7.06,10.01.75,2.24,1.37,4.53,1.81,6.84.45,2.4.13,4.82-.11,7.23-.49,4.94-2.03,9.53-4.63,13.76-.11.17-.16.38-.24.57Zm-2.75-17.32c-.29-4.57-2.31-8.64-6.09-11.81-1.31-1.1-2.44-.93-3.55.42-.77.93-1.49,1.91-2.18,2.9-3.57,5.16-4.82,10.9-4.03,17.08.32,2.46,1.46,4.58,3.38,6.25,1.11.97,2.33,1.21,3.65.57,1.28-.62,2.47-1.36,3.5-2.38,3.52-3.49,4.96-7.83,5.32-13.02Z"/>
  <path class="b" d="m118.11,43.74c-.09.41-.2.81-.28,1.22-.63,3.22-3.34,5.62-6.47,5.56-3.65-.07-5.95-2.01-6.71-5.43-.09-.41-.14-.82-.21-1.24.31-2.5.67-4.99.91-7.49.21-2.23-.06-4.4-1.28-6.35-.51-.82-1.16-.95-1.79-.28-1.39,1.47-2.52,3.14-2.5,5.26.03,2.99.47,5.95,1.03,8.89,0,.52-.05,1.05-.01,1.56.27,4.48-4,8.74-9,6.97-2.98-1.57-4.36-4.18-4.62-7.41-.33-4.2-.91-8.37-1.57-12.51-1.06-6.69-1.88-13.42-3-20.1-.44-2.65-.63-5.44.09-8.15,1.13-4.25,5.83-5.62,9.04-2.64,1.05.98,1.84,2.14,2.41,3.47,1.59,3.71,2.3,7.63,2.83,11.6.24,1.82.61,3.63.94,5.44.15.81.3.86,1,.4.39-.26.76-.57,1.14-.84,4.8-3.31,9.95-2.95,14.25,1.02,3.21,2.97,5,6.51,4.77,11.03-.14,2.74-.42,5.45-.79,8.15-.09.62-.12,1.25-.19,1.88Z"/>
  <path class="b" d="m365.19,137.84c.51.04.67-.29.86-.51,1.81-2.03,4.01-3.57,6.31-4.94,4.01-2.39,8.3-1.96,11.85,1.05,1.51,1.28,2.71,2.78,3.54,4.58.35.76.72,1.52,1.09,2.27,1.3,2.68,2,5.5,2.16,8.49.23,4.32-.07,8.63-.31,12.93-.15,2.6-1.31,4.74-3.68,6.07-3.95,2.21-8.97-.3-9.59-4.8-.3-2.16-.15-4.31.17-6.45.74-5.05,1.39-10.11,1.87-15.18.34-3.57-1.07-4.68-4.49-3.6-2.49.79-4.15,2.62-5.6,4.65-.95,1.32-1.57,2.85-2.23,4.34-.57,1.3-.47,2.67-.31,4.04.46,3.86.92,7.73,1.37,11.59.56,4.81-3.58,8.25-8.23,7.31-2.3-.47-3.74-2.04-4.62-4.14-.57-1.37-.78-2.83-.97-4.29-.79-6.21-1.59-12.41-2.38-18.62-.18-1.41-.35-2.82-.5-4.23-.1-.95-.04-1.89.23-2.81.92-3.11,3.51-5.09,6.51-4.97,3.1.12,5.86,2.5,6.57,5.66.11.51.11,1.05.38,1.56Z"/>
  <path class="b" d="m232.08,44.27c-1.72.39-3.41.89-5.19.94-2.53.06-4.96-.39-7.33-1.23-1.96-.75-3.12-2.25-3.77-4.18-.78-2.29.85-4.26,2.9-4.12,1,.07,1.99.05,2.96.34,1.61.48,2.85-.12,3.89-1.37,1.38-1.66,1.64-3.72,2.07-5.71.13-.59-.29-.87-.87-.8-1.1.13-2.2.23-3.28.44-2.06.4-4.14.25-6.11-.22-3.16-.75-5.42-2.69-6.36-5.93-.4-1.37-.69-2.76-.77-4.18-.19-3.36-.47-6.71,0-10.07.15-1.06.51-2.03.97-2.98,1.35-2.74,3.07-3.79,6.02-3.63,2.86.15,4.84,1.62,5.79,4.32.51,1.46.71,2.96.58,4.5-.23,2.74.04,5.46.39,8.18.11.83.21,1.71,1.24,1.98,1.78.46,2.28.07,2.2-1.75-.16-3.58-.19-7.15.34-10.7.24-1.62.63-3.2,1.31-4.69,1.01-2.22,3.58-3.64,5.67-3.01,1.92.58,3.5,1.69,4.22,3.7.49,1.39.87,2.81,1.1,4.26,1.01,6.46,1.22,12.98,1.24,19.5.01,5.83-2.18,10.75-6.66,14.56-.79.67-1.68,1.24-2.52,1.85Z"/>
  <path class="b" d="m329.11,156.69c0,1.84-.03,3.68.01,5.52.03,1.17-.14,2.32-.37,3.44-.46,2.3-2.13,3.42-4.25,3.94-1.99.49-4.4-.48-5.57-2.15-.48-.69-.84-1.45-1.18-2.22-.23-.53-.61-.54-.96-.11-.33.41-.61.86-.93,1.27-2.62,3.41-8.1,5.28-12.19,3.32-4.21-2.02-6.9-5.17-7.12-9.97-.26-5.68,1.05-10.95,4.48-15.6,1.17-1.58,2.52-2.98,4.18-4.03,4.19-2.65,8.55-2.95,13.01-.72.52.26.88.24,1.25-.16.11-.12.21-.23.31-.35,1.98-2.29,6.1-1.7,7.08,1.64,1.09,3.68,1.93,7.43,2.05,11.3.05,1.63,0,3.26,0,4.89h.18Zm-18.99,1.41c-.02.31-.07.63-.06.94.02.5-.2,1.2.37,1.4.61.21.85-.5,1.13-.91,2.15-3.15,3.5-6.7,5.14-10.1.02-.05.05-.09.06-.14.04-.21.06-.44-.12-.59-.19-.15-.39-.05-.56.08-.88.67-1.72,1.39-2.63,2.01-1.61,1.11-2.49,2.66-3,4.49-.26.92-.29,1.87-.33,2.81Z"/>
  <path class="b" d="m254.93,147.09c.1-.99.17-1.99.31-2.98.22-1.51.88-2.81,2.15-3.72,2.13-1.51,4.2-1.64,7.04.62,1.13.9,1.81,2.17,2.52,3.4.71,1.22.75,1.22,1.8.24,1.3-1.22,2.55-2.51,4.02-3.55,4.93-3.5,10.81-2.62,14.23,1.71,1.92,2.43,3.34,5.08,4.12,8.08.36,1.39.49,2.79.13,4.21-.57,2.26-1.85,3.97-3.9,5.1-2.66,1.46-7.99.4-9.37-4.52-.5-1.8-.18-3.53.48-5.23.18-.46.69-1,.25-1.44-.5-.51-1.09-.05-1.57.24-.76.46-1.48,1-2.25,1.46-3.58,2.18-4.31,5.63-3.73,9.33.54,3.41,1.27,6.79,2.25,10.14,1.21,4.14-1.35,8.14-5.18,8.8-3.31.56-6.64-1.35-7.67-4.61-.86-2.76-1.47-5.58-2.03-8.42-1.08-5.46-2.24-10.9-3.39-16.35-.18-.83-.23-1.66-.21-2.51Z"/>
  <path class="b" d="m438.63,129.59c1.21-.9,2.33-1.92,3.77-2.51,1.67-.68,3.37-1.12,5.19-1,1.22.08,2.29.73,3.47.95,4.35,2.77,6.64,6.93,7.76,11.79.68,2.94-.22,5.52-2.45,7.59-2.44,2.26-6.66,2.08-9.01-.38-2.25-2.35-2.51-5.09-1.48-8.05.03-.1.09-.19.13-.29.19-.52.7-1.12.12-1.56-.43-.32-1,.06-1.45.35-.84.54-1.66,1.11-2.5,1.64-3.24,2.06-3.94,5.28-3.5,8.68.46,3.53,1.16,7.04,2.27,10.46,1.13,3.51-.73,7.4-3.97,8.6-3.77,1.4-7.84-.69-8.99-4.62-.93-3.18-1.57-6.43-2.23-9.67-.88-4.38-1.8-8.75-2.77-13.11-.67-2.99-.57-5.94.2-8.89.59-.83,1.08-1.73,2.04-2.27,2.38-1.33,4.93-1,7,1.01.41.39.77.84,1.15,1.25.26.92.94,1.62,1.35,2.47.28.59.68.75,1.21.21.88-.9,1.78-1.77,2.67-2.65Z"/>
  <path class="b" d="m232.79,130.45c1.78,0,3.49-.56,5.27-.69,1.47-.11,2.93-.22,4.39-.14,1.8.1,3.66-.22,5.39.56.18.19.38.36.55.57,1.12,1.43.96,2.83-.44,4-.71.59-1.55.92-2.44,1.05-1.87.26-3.7.8-5.6.89-1.16.06-1.27.24-1.07,1.37.28,1.6.64,3.19.9,4.8.53,3.38.65,6.8.92,10.21.51,6.39.97,12.79,1.45,19.19.11,1.42.17,2.83-.34,4.21-1.14,3.08-3.97,4.81-7.2,4.41-3.1-.39-5.51-2.82-5.86-6.1-.57-5.33-.96-10.68-1.28-16.03-.21-3.57-.48-7.13-.78-10.7-.23-2.73-.34-5.46.07-8.18.02-.1.02-.21.03-.31.11-1.37.02-1.5-1.32-1.4-1.62.12-3.25.28-4.87.46-1.06.12-2.1.11-3.09-.35-1.01-.47-1.72-1.17-1.83-2.36-.11-1.26.27-2.28,1.31-3.02.57-.41,1.22-.65,1.89-.74,4.64-.58,9.29-1.12,13.93-1.68Z"/>
  <path class="b" d="m400.81,129.56c1.31-1.02,2.51-2.19,4.09-2.84,2.99-1.22,5.95-1.48,8.89.15,1.22.67,2.1,1.7,2.93,2.78,1.66,2.37,2.13,4.97,1.64,7.8-.19,1.08-.19,2.19-.44,3.28-.82,3.66-4.15,7.34-9.31,6.65-1.42-.19-1.41-.17-1.44,1.21-.04,1.93.13,3.79,1.49,5.32.1.11.23.2.42.36.56-.32.87-.87,1.23-1.36.47-.63.89-1.31,1.4-1.9.95-1.08,2.26-1.35,3.42-.79.98.48,1.71,1.85,1.48,3.07-.44,2.42-1.32,4.66-3.07,6.45-2.37,2.42-6.34,2.97-9.33,1.3-2.2-1.23-4.02-2.91-5.34-5.05-3.68-5.98-4.38-12.39-2.51-19.09.65-2.31,2-4.27,3.53-6.1.33-.4.79-.7.92-1.25Zm11.67,8.9c-.03-.3-.04-.51-.07-.71-.09-.78-.4-1.44-1.2-1.67-.77-.22-1.25.3-1.7.84-.94,1.12-1.29,2.49-1.6,3.86-.08.34.05.61.34.8,1.24.84,3.53.07,3.94-1.36.17-.6.21-1.23.29-1.77Z"/>
  <path class="b" d="m348.32,154.54c0,1.63.01,3.26,0,4.88-.03,3.45-1.64,5.76-4.76,6.85-3.69,1.29-7.7-.91-8.49-4.76-.43-2.11-.48-4.28-.55-6.43-.08-2.41-.1-4.83-.14-7.25-.05-3.06.97-5.79,2.68-8.25,1.94-2.77,5.57-2.84,7.66-.19,1.89,2.4,3.16,5.04,3.16,8.21,0,2.31.22,4.61.35,6.92h.09Z"/>
  <path class="b" d="m335.48,130.11c-.03-1.1.06-2.13.45-3.22.92-2.51,4.4-2.87,6.17-1.86,1.44.82,2.26,1.99,2.21,3.7-.01.47-.02.94-.03,1.42-.52,2.78-2.95,3.7-4.86,3.52-2.17-.2-3.31-1.61-3.95-3.55Z"/>
  <path class="f" d="m394.11,85.51c0-8.05,0-16.1,0-24.15,0-.42,0-.84,0-1.26,0-.46.23-.64.68-.64,2.05.01,4.1.01,6.16,0,.52,0,.78.2.76.74-.02.42,0,.84,0,1.26,0,13.94,0,27.88,0,41.83,0,1.9-.21,1.71,1.66,1.71,6.21,0,12.42,0,18.63,0,.37,0,.74.01,1.1,0,.51-.02.78.17.78.73-.01,1.68-.01,3.37,0,5.05,0,.56-.27.74-.78.72-.32-.01-.63,0-.95,0-8.79,0-17.57,0-26.36,0-.37,0-.74-.01-1.1,0-.4,0-.56-.21-.57-.57-.01-.42-.01-.84-.01-1.26,0-8.05,0-16.1,0-24.15Z"/>
  <path class="f" d="m484.47,85.84c0-7.84,0-15.68,0-23.52,0-.32,0-.63,0-.95.02-1.36.02-1.38,1.39-1.38,9.52,0,19.05,0,28.57,0,1.35,0,1.36.02,1.37,1.41,0,1.32-.02,2.63,0,3.95,0,.61-.26.86-.85.84-.37-.01-.74,0-1.1,0-6.42,0-12.84,0-19.26,0-.26,0-.53,0-.79,0q-1.74,0-1.74,1.68c0,3.53,0,7.05,0,10.58,0,.53,0,1.05,0,1.58,0,2.02-.14,1.81,1.75,1.82,4.89,0,9.79,0,14.68,0,1.32,0,2.63-.01,3.95,0,1.15.01,1.17.03,1.19,1.1.02,1.32-.03,2.63.02,3.95.03.8-.24,1.13-1.07,1.1-1.68-.05-3.37-.01-5.05-.01-4.68,0-9.37,0-14.05,0-1.39,0-1.41.02-1.41,1.37,0,5,0,10,0,15,0,1.26.02,1.28,1.33,1.29,6.79,0,13.58,0,20.37,0,.37,0,.74,0,1.11,0,1.18.04,1.2.04,1.21,1.27.02,1.32-.04,2.63.02,3.95.04.86-.31,1.14-1.1,1.06-.21-.02-.42,0-.63,0-9.37,0-18.73,0-28.1,0-.32,0-.63-.02-.95,0-.59.04-.88-.21-.84-.82.02-.37,0-.74,0-1.1,0-8.05,0-16.1,0-24.15Z"/>
  <path class="f" d="m231.53,90.24c4.5,7.17,8.96,14.27,13.41,21.37-.54.43-.97.3-1.37.3-1.84.02-3.69-.05-5.52.03-1.02.05-1.6-.29-2.13-1.18-3.11-5.25-6.28-10.46-9.44-15.68-.68-1.12-1.15-2.58-2.15-3.25-1.07-.72-2.66-.19-4.02-.23-1.21-.03-2.42,0-3.63,0-.58,0-.89.21-.86.83.02.37,0,.74,0,1.1,0,5.52,0,11.05,0,16.57,0,.37-.01.74,0,1.1,0,.44-.16.71-.63.7-1.95,0-3.89,0-5.84,0-.48,0-.63-.27-.63-.71,0-.37,0-.74,0-1.1,0-16.1,0-32.2,0-48.3,0-.26.02-.53,0-.79-.07-.72.2-1.04.97-1.03,6.1.06,12.22-.24,18.31.14,5.21.33,9.57,2.5,12.17,7.29,3.24,5.98,3.25,16.05-5.66,21.16-.95.55-1.91,1.07-2.98,1.67Zm-15.7-14.6c0,2.84-.01,5.68,0,8.53,0,1.15.03,1.18,1.11,1.19,2.26,0,4.53.04,6.79-.05,2.12-.09,4.17-.56,6.05-1.58,2.27-1.23,3.71-3.12,4.17-5.64.33-1.76.27-3.55-.12-5.33-.65-3-2.48-4.92-5.32-5.93-1.4-.49-2.85-.74-4.33-.75-2.32,0-4.63-.02-6.95-.01-1.39,0-1.41.02-1.41,1.37-.01,2.74,0,5.47,0,8.21Z"/>
  <path class="f" d="m58.64,102.48c1.6-8.41,4.08-16.55,6.33-24.76,1.49-5.42,3.01-10.84,4.51-16.25.41-1.47.4-1.47,1.88-1.48,1.99,0,3.97,0,5.98,0,.08,1.22-.38,2.14-.66,3.08-4.62,15.79-9.26,31.57-13.9,47.35-.04.15-.14.29-.15.45-.08.87-.59,1.08-1.4,1.06-1.84-.05-3.68-.05-5.52,0-.84.02-1.17-.31-1.4-1.1-2.07-7.33-4.19-14.65-6.28-21.98-1.73-6.06-3.55-12.1-5.1-18.21-.02-.08-.11-.15-.16-.23-.32.08-.34.36-.4.61-2.94,12.32-6.68,24.43-9.96,36.66-.3,1.12-.63,2.23-.91,3.35-.17.67-.52.93-1.23.91-1.84-.04-3.69-.07-5.52,0-.94.04-1.25-.34-1.5-1.18-1.8-6.1-3.66-12.18-5.49-18.27-3.04-10.12-6.07-20.24-9.1-30.35-.7-2.34-.75-2.13,1.52-2.13,1.42,0,2.84,0,4.26,0,1.34,0,1.34.01,1.71,1.28,1.18,4.09,2.37,8.18,3.54,12.27,1.91,6.67,3.85,13.33,5.71,20.01.8,2.88,1.47,5.8,1.87,8.8.41-.06.38-.45.43-.68,1.39-7.24,3.61-14.26,5.72-21.31,1.88-6.29,3.72-12.6,5.59-18.9.44-1.48.44-1.48,2.06-1.49,1.32,0,2.63,0,3.95,0,1.24.01,1.26.01,1.63,1.21,1.63,5.27,3.27,10.54,4.85,15.83,1.74,5.84,3.77,11.6,5.21,17.53.53,2.19.97,4.41,1.45,6.62.1.45.1.93.51,1.3Z"/>
  <path class="f" d="m295.89,85.96c0-8.05,0-16.1,0-24.15,0-.42,0-.84,0-1.26,0-.39.21-.56.59-.57.21,0,.42,0,.63,0,5.89.02,11.79-.05,17.68.09,4.81.11,9.35,1.35,13.45,3.95,4.92,3.11,7.94,7.62,9.3,13.2,1.35,5.56,1.3,11.18-.2,16.7-2.38,8.75-8.07,14.3-16.82,16.69-3.52.96-7.12,1.33-10.77,1.32-4.05-.02-8.1,0-12.15,0-1.91,0-1.71.22-1.71-1.65,0-8.1,0-16.2,0-24.3Zm7.6.01c0,2.32,0,4.63,0,6.95,0,3.89,0,7.79,0,11.68,0,.67.07,1.08.92,1.06,3.47-.07,6.94.08,10.4-.43,7.82-1.16,13.03-5.99,14.75-13.76.72-3.22.8-6.48.46-9.73-.44-4.2-1.96-7.96-5.15-10.88-3.03-2.76-6.71-4.08-10.73-4.47-2.99-.29-6-.15-8.99-.16-1.8,0-1.64-.15-1.64,1.59,0,6.05,0,12.1,0,18.16Z"/>
  <path class="f" d="m158.73,85.96c-.06,4.56-.7,9-2.64,13.19-3.15,6.8-8.33,11.09-15.64,12.79-5.09,1.18-10.13,1-15.09-.61-6.05-1.96-10.49-5.84-12.95-11.67-3.77-8.94-3.89-18.06,0-26.98,3.5-8.02,9.99-12.2,18.59-13.26,4.8-.59,9.44-.03,13.91,1.84,5.31,2.23,9.01,6.09,11.31,11.32,1.56,3.56,2.32,7.3,2.4,11.18.02.74.08,1.47.12,2.2Zm-40.75-1.25c.02,4.23.29,7.14,1.12,10,2.5,8.65,10.03,13.29,18.82,11.46,5.49-1.14,8.91-4.71,10.82-9.81,2.07-5.52,2.06-11.21,1.11-16.94-.5-3-1.57-5.79-3.41-8.22-3.21-4.23-7.59-5.96-12.81-5.83-6.15.15-10.59,2.97-13.29,8.51-1.86,3.83-2.37,7.92-2.36,10.83Z"/>
  <path class="c" d="m215.83,75.64c0-2.74,0-5.47,0-8.21,0-1.35.02-1.36,1.41-1.37,2.32,0,4.63,0,6.95.01,1.49,0,2.94.26,4.33.75,2.84,1,4.67,2.93,5.32,5.93.38,1.78.44,3.57.12,5.33-.47,2.52-1.9,4.41-4.17,5.64-1.89,1.02-3.94,1.5-6.05,1.58-2.26.09-4.53.06-6.79.05-1.08,0-1.11-.03-1.11-1.19-.02-2.84,0-5.68,0-8.53Z"/>
  <path class="d" d="m303.48,85.97c0-6.05,0-12.1,0-18.16,0-1.73-.16-1.59,1.64-1.59,3,.01,6-.13,8.99.16,4.03.39,7.7,1.71,10.73,4.47,3.19,2.91,4.71,6.68,5.15,10.88.34,3.25.26,6.51-.46,9.73-1.73,7.77-6.93,12.6-14.75,13.76-3.46.51-6.93.36-10.4.43-.85.02-.92-.39-.92-1.06.02-3.89,0-7.79,0-11.68,0-2.32,0-4.63,0-6.95Z"/>
  <path class="e" d="m117.99,84.71c0-2.91.5-7,2.36-10.83,2.7-5.55,7.13-8.36,13.29-8.51,5.22-.13,9.6,1.6,12.81,5.83,1.84,2.43,2.92,5.22,3.41,8.22.95,5.73.96,11.42-1.11,16.94-1.91,5.1-5.33,8.67-10.82,9.81-8.79,1.83-16.32-2.81-18.82-11.46-.82-2.86-1.09-5.77-1.12-10Z"/>
</svg>